HIERARCHY
ROOT hip
{
	OFFSET 0.000000 0.000000 0.000000
	CHANNELS 6 Xposition Yposition Zposition Xrotation Zrotation Yrotation 
	JOINT abdomen
	{
		OFFSET 0.000000 3.422050 0.000000
		CHANNELS 3 Xrotation Zrotation Yrotation 
		JOINT chest
		{
			OFFSET 0.000000 8.486693 -0.684411
			CHANNELS 3 Xrotation Zrotation Yrotation 
			JOINT neck
			{
				OFFSET 0.000000 10.266162 -0.273764
				CHANNELS 3 Xrotation Zrotation Yrotation 
				JOINT head
				{
					OFFSET 0.000000 3.148285 0.000000
					CHANNELS 3 Xrotation Zrotation Yrotation 
					End Site
					{
						OFFSET 0.000000 3.148289 0.000000
					}
				}
			}
			JOINT lCollar
			{
				OFFSET 3.422053 6.707223 -0.821293
				CHANNELS 3 Yrotation Zrotation Xrotation 
				JOINT lShldr
				{
					OFFSET 3.285171 0.000000 0.000000
					CHANNELS 3 Zrotation Yrotation Xrotation 
					JOINT lForeArm
					{
						OFFSET 10.129278 0.000000 0.000000
						CHANNELS 3 Yrotation Zrotation Xrotation 
						JOINT lHand
						{
							OFFSET 8.486692 0.000000 0.000000
							CHANNELS 3 Zrotation Yrotation Xrotation 
							End Site
							{
								OFFSET 4.106464 0.000000 0.000000
							}
						}
					}
				}
			}
			JOINT rCollar
			{
				OFFSET -3.558935 6.707223 -0.821293
				CHANNELS 3 Yrotation Zrotation Xrotation 
				JOINT rShldr
				{
					OFFSET -3.148289 0.000000 0.000000
					CHANNELS 3 Zrotation Yrotation Xrotation 
					JOINT rForeArm
					{
						OFFSET -10.266159 0.000000 0.000000
						CHANNELS 3 Yrotation Zrotation Xrotation 
						JOINT rHand
						{
							OFFSET -8.349810 0.000000 0.000000
							CHANNELS 3 Zrotation Yrotation Xrotation 
							End Site
							{
								OFFSET -4.106464 0.000000 0.000000
							}
						}
					}
				}
			}
		}
	}
	JOINT lThigh
	{
		OFFSET 5.338403 -1.642589 1.368821
		CHANNELS 3 Xrotation Zrotation Yrotation 
		JOINT lShin
		{
			OFFSET -2.053232 -20.121670 0.000000
			CHANNELS 3 Xrotation Zrotation Yrotation 
			JOINT lFoot
			{
				OFFSET 0.000000 -19.300380 -1.231939
				CHANNELS 3 Xrotation Yrotation Zrotation 
				End Site
				{
					OFFSET 0.000000 -2.463878 4.653993
				}
			}
		}
	}
	JOINT rThigh
	{
		OFFSET -5.338403 -1.642589 1.368821
		CHANNELS 3 Xrotation Zrotation Yrotation 
		JOINT rShin
		{
			OFFSET 2.053232 -20.121670 0.000000
			CHANNELS 3 Xrotation Zrotation Yrotation 
			JOINT rFoot
			{
				OFFSET 0.000000 -19.300380 -1.231939
				CHANNELS 3 Xrotation Yrotation Zrotation 
				End Site
				{
					OFFSET 0.000000 -2.463878 4.653993
				}
			}
		}
	}
}
MOTION
Frames: 9
Frame Time: 0.033264
19.995884 15.190132 1.865312 -64.013908 0.000000 0.000000 -45.431534 -0.079859 -0.059451 16.057236 -9.213914 -0.656948 2.993597 -18.762299 1.030224 -21.901310 -1.203144 1.210306 19.824669 15.353260 1.450481 7.838801 9.510272 53.931816 -8.042770 0.370275 40.990078 13.846128 -14.557137 -6.044982 -16.516729 -12.471301 1.570825 -2.958452 -4.276712 53.281712 0.335735 -0.074315 40.963383 -7.644747 20.275991 -0.221122 33.395008 45.525925 57.118935 130.635773 46.511478 -25.359262 48.474037 2.238649 -24.124838 29.416723 -39.912003 -60.840130 140.998199 -40.735012 17.559813 57.857742 -35.345623 31.719835 
19.995884 15.213430 1.865312 -64.013908 0.000000 0.000000 -45.431534 -0.079859 -0.059451 15.592864 -9.213926 -0.656978 3.193707 -18.762327 1.030201 -21.608328 -1.203113 1.210270 19.713713 15.486112 1.478864 7.838801 9.510272 53.931816 -8.042770 0.370275 40.990078 13.735651 -14.681855 -5.683931 -16.324280 -12.614545 1.606004 -2.958452 -4.276712 53.281712 0.335735 -0.074315 40.963383 -7.501527 20.341806 0.144445 33.395008 45.525925 57.118935 130.635773 46.511478 -25.359262 48.443474 2.236395 -24.249086 29.416723 -39.912003 -60.840130 140.998199 -40.735012 17.559813 57.905899 -35.309349 31.873611 
19.995884 15.236728 1.865312 -64.013908 0.000000 0.000000 -45.431534 -0.079859 -0.059451 15.128536 -9.213939 -0.657008 3.393813 -18.762358 1.030179 -21.315353 -1.203082 1.210233 19.602625 15.618912 1.507534 7.838801 9.510272 53.931816 -8.042770 0.370275 40.990078 13.624310 -14.805895 -5.322445 -16.131641 -12.757674 1.641696 -2.958452 -4.276712 53.281712 0.335735 -0.074315 40.963383 -7.357811 20.406771 0.510324 33.395008 45.525925 57.118935 130.635773 46.511478 -25.359262 48.412895 2.234210 -24.373329 29.416723 -39.912003 -60.840130 140.998199 -40.735012 17.559813 57.953918 -35.272972 32.027271 
19.995884 15.260026 1.865312 -64.013908 0.000000 0.000000 -45.431534 -0.079859 -0.059451 14.664256 -9.213952 -0.657039 3.593917 -18.762394 1.030156 -21.022394 -1.203050 1.210197 19.491394 15.751657 1.536488 7.838801 9.510272 53.931816 -8.042770 0.370275 40.990078 13.512100 -14.929240 -4.960528 -15.938807 -12.900679 1.677901 -2.958452 -4.276712 53.281712 0.335735 -0.074315 40.963383 -7.213601 20.470858 0.876507 33.395008 45.525925 57.118935 130.635773 46.511478 -25.359262 48.382305 2.232088 -24.497570 29.416723 -39.912003 -60.840130 140.998199 -40.735012 17.559813 58.001789 -35.236488 32.180828 
19.995884 15.283323 1.865312 -64.013908 0.000000 0.000000 -45.431534 -0.079859 -0.059451 14.200045 -9.213964 -0.657069 3.794015 -18.762424 1.030133 -20.729458 -1.203019 1.210162 19.380022 15.884339 1.565730 7.838801 9.510272 53.931816 -8.042770 0.370275 40.990078 13.399037 -15.051887 -4.598190 -15.745770 -13.043557 1.714619 -2.958452 -4.276712 53.281712 0.335735 -0.074315 40.963383 -7.068911 20.534079 1.242982 33.395008 45.525925 57.118935 130.635773 46.511478 -25.359262 48.351734 2.230033 -24.621817 29.416723 -39.912003 -60.840130 140.998199 -40.735012 17.559813 58.049526 -35.199898 32.334278 
19.995884 15.306622 1.865312 -64.013908 0.000000 0.000000 -45.431534 -0.079859 -0.059451 13.735920 -9.213978 -0.657098 3.994108 -18.762459 1.030111 -20.436535 -1.202988 1.210126 19.268505 16.016962 1.595258 7.838801 9.510272 53.931816 -8.042770 0.370275 40.990078 13.285116 -15.173823 -4.235434 -15.552543 -13.186307 1.751850 -2.958452 -4.276712 53.281712 0.335735 -0.074315 40.963383 -6.923745 20.596426 1.609740 33.395008 45.525925 57.118935 130.635773 46.511478 -25.359262 48.321133 2.228046 -24.746056 29.416723 -39.912003 -60.840130 140.998199 -40.735012 17.559813 58.097126 -35.163219 32.487621 
19.995884 15.329919 1.865312 -64.013908 0.000000 0.000000 -45.431534 -0.079859 -0.059451 13.271892 -9.213990 -0.657128 4.194194 -18.762491 1.030087 -20.143635 -1.202955 1.210090 19.156855 16.149534 1.625074 7.838801 9.510272 53.931816 -8.042770 0.370275 40.990078 13.170353 -15.295052 -3.872268 -15.359117 -13.328928 1.789596 -2.958452 -4.276712 53.281712 0.335735 -0.074315 40.963383 -6.778117 20.657894 1.976769 33.395004 45.525921 57.118935 130.635773 46.511478 -25.359262 48.290539 2.226125 -24.870293 29.416723 -39.912003 -60.840130 140.998199 -40.735012 17.559813 58.144573 -35.126427 32.640850 
19.995884 15.353216 1.865312 -64.013908 0.000000 0.000000 -45.431534 -0.079859 -0.059451 12.807982 -9.214005 -0.657158 4.394270 -18.762524 1.030064 -19.850769 -1.202924 1.210055 19.045057 16.282042 1.655177 7.838801 9.510272 53.931816 -8.042770 0.370275 40.990078 13.054741 -15.415547 -3.508696 -15.165487 -13.471413 1.827856 -2.958452 -4.276712 53.281712 0.335735 -0.074315 40.963383 -6.632032 20.718483 2.344061 33.395004 45.525921 57.118935 130.635773 46.511478 -25.359262 48.259953 2.224268 -24.994539 29.416723 -39.912003 -60.840130 140.998199 -40.735012 17.559813 58.191875 -35.089520 32.793964 
19.995884 15.376514 1.865312 -64.013908 0.000000 0.000000 -45.431534 -0.079859 -0.059451 12.344197 -9.214019 -0.657188 4.594337 -18.762552 1.030041 -19.557938 -1.202892 1.210020 18.933117 16.414486 1.685570 7.838801 9.510272 53.931816 -8.042770 0.370275 40.990078 12.938293 -15.535314 -3.144727 -14.971663 -13.613763 1.866632 -2.958452 -4.276712 53.281712 0.335735 -0.074315 40.963383 -6.485500 20.778181 2.711606 33.395008 45.525925 57.118935 130.635773 46.511478 -25.359262 48.229347 2.222480 -25.118776 29.416723 -39.912003 -60.840130 140.998199 -40.735012 17.559813 58.239037 -35.052521 32.946976 
